<svg aria-roledescription="er" viewBox="0 0 492.1685791015625 377" style="max-width: 492.169px; background-color: white;" xmlns:xlink="http://www.w3.org/1999/xlink" xmlns="http://www.w3.org/2000/svg" width="100%" id="mermaid-0"><style>#mermaid-0{font-family:"trebuchet ms",verdana,arial,sans-serif;font-size:16px;fill:#000000;}#mermaid-0 .error-icon{fill:#552222;}#mermaid-0 .error-text{fill:#552222;stroke:#552222;}#mermaid-0 .edge-thickness-normal{stroke-width:2px;}#mermaid-0 .edge-thickness-thick{stroke-width:3.5px;}#mermaid-0 .edge-pattern-solid{stroke-dasharray:0;}#mermaid-0 .edge-pattern-dashed{stroke-dasharray:3;}#mermaid-0 .edge-pattern-dotted{stroke-dasharray:2;}#mermaid-0 .marker{fill:#000000;stroke:#000000;}#mermaid-0 .marker.cross{stroke:#000000;}#mermaid-0 svg{font-family:"trebuchet ms",verdana,arial,sans-serif;font-size:16px;}#mermaid-0 .entityBox{fill:#cde498;stroke:#13540c;}#mermaid-0 .attributeBoxOdd{fill:#ffffff;stroke:#13540c;}#mermaid-0 .attributeBoxEven{fill:#f2f2f2;stroke:#13540c;}#mermaid-0 .relationshipLabelBox{fill:hsl(78.1578947368, 58.4615384615%, 84.5098039216%);opacity:0.7;background-color:hsl(78.1578947368, 58.4615384615%, 84.5098039216%);}#mermaid-0 .relationshipLabelBox rect{opacity:0.5;}#mermaid-0 .relationshipLine{stroke:#000000;}#mermaid-0 .entityTitleText{text-anchor:middle;font-size:18px;fill:#000000;}#mermaid-0 :root{--mermaid-font-family:"trebuchet ms",verdana,arial,sans-serif;}</style><g/><defs><marker orient="auto" markerHeight="18" markerWidth="18" refY="9" refX="0" id="ONLY_ONE_START"><path d="M9,0 L9,18 M15,0 L15,18" fill="none" stroke="gray"/></marker></defs><defs><marker orient="auto" markerHeight="18" markerWidth="18" refY="9" refX="18" id="ONLY_ONE_END"><path d="M3,0 L3,18 M9,0 L9,18" fill="none" stroke="gray"/></marker></defs><defs><marker orient="auto" markerHeight="18" markerWidth="30" refY="9" refX="0" id="ZERO_OR_ONE_START"><circle r="6" cy="9" cx="21" fill="white" stroke="gray"/><path d="M9,0 L9,18" fill="none" stroke="gray"/></marker></defs><defs><marker orient="auto" markerHeight="18" markerWidth="30" refY="9" refX="30" id="ZERO_OR_ONE_END"><circle r="6" cy="9" cx="9" fill="white" stroke="gray"/><path d="M21,0 L21,18" fill="none" stroke="gray"/></marker></defs><defs><marker orient="auto" markerHeight="36" markerWidth="45" refY="18" refX="18" id="ONE_OR_MORE_START"><path d="M0,18 Q 18,0 36,18 Q 18,36 0,18 M42,9 L42,27" fill="none" stroke="gray"/></marker></defs><defs><marker orient="auto" markerHeight="36" markerWidth="45" refY="18" refX="27" id="ONE_OR_MORE_END"><path d="M3,9 L3,27 M9,18 Q27,0 45,18 Q27,36 9,18" fill="none" stroke="gray"/></marker></defs><defs><marker orient="auto" markerHeight="36" markerWidth="57" refY="18" refX="18" id="ZERO_OR_MORE_START"><circle r="6" cy="18" cx="48" fill="white" stroke="gray"/><path d="M0,18 Q18,0 36,18 Q18,36 0,18" fill="none" stroke="gray"/></marker></defs><defs><marker orient="auto" markerHeight="36" markerWidth="57" refY="18" refX="39" id="ZERO_OR_MORE_END"><circle r="6" cy="18" cx="9" fill="white" stroke="gray"/><path d="M21,18 Q39,0 57,18 Q39,36 21,18" fill="none" stroke="gray"/></marker></defs><path style="stroke: gray; fill: none;" marker-start="url(#ZERO_OR_MORE_START)" marker-end="url(#ONLY_ONE_END)" d="M81.30781555175781,128L81.30781555175781,139.83333333333334C81.30781555175781,151.66666666666666,81.30781555175781,175.33333333333334,85.31422580816808,195.5C89.32063606457832,215.66666666666666,97.33345657739885,232.33333333333334,101.3398668338091,240.66666666666666L105.34627709021936,249" class="er relationshipLine"/><path style="stroke: gray; fill: none;" marker-start="url(#ZERO_OR_MORE_START)" marker-end="url(#ONLY_ONE_END)" d="M293.46640394452356,149L285.34486959976573,157.33333333333334C277.2233352550079,165.66666666666666,260.98026656549223,182.33333333333334,243.51021384915236,199.23804288967676C226.0401611328125,216.14275244602018,207.34312438964844,233.28550489204042,197.9946060180664,241.85688111505053L188.64608764648438,250.42825733806063" class="er relationshipLine"/><path style="stroke: gray; fill: none;" marker-start="url(#ZERO_OR_MORE_START)" marker-end="url(#ZERO_OR_ONE_END)" d="M384.493018637578,149L388.13202882680656,157.33333333333334C391.77103901603505,165.66666666666666,399.04905939449213,182.33333333333334,402.6880695837206,200.75C406.3270797729492,219.16666666666666,406.3270797729492,239.33333333333334,406.3270797729492,249.41666666666666L406.3270797729492,259.5" class="er relationshipLine"/><g transform="translate(73.96954345703125,249 )" id="entity-user-bf055eb3-69b9-44b4-88db-4a4546aaf25b"><rect height="108" width="114.67654418945312" y="0" x="0" class="er entityBox"/><text style="dominant-baseline: middle; text-anchor: middle; font-size: 12px;" transform="translate(57.33827209472656,12)" y="0" x="0" id="text-entity-user-bf055eb3-69b9-44b4-88db-4a4546aaf25b" class="er entityLabel">user</text><rect height="21" width="36.947052001953125" y="24" x="0" class="er attributeBoxOdd"/><text style="dominant-baseline: middle; font-size: 10.2px;" transform="translate(5,34.5)" y="0" x="0" id="text-entity-user-bf055eb3-69b9-44b4-88db-4a4546aaf25b-attr-1-type" class="er entityLabel">String</text><rect height="21" width="53.93450927734375" y="24" x="36.947052001953125" class="er attributeBoxOdd"/><text style="dominant-baseline: middle; font-size: 10.2px;" transform="translate(41.947052001953125,34.5)" y="0" x="0" id="text-entity-user-bf055eb3-69b9-44b4-88db-4a4546aaf25b-attr-1-name" class="er entityLabel">id</text><rect height="21" width="23.79498291015625" y="24" x="90.88156127929688" class="er attributeBoxOdd"/><text style="dominant-baseline: middle; font-size: 10.2px;" transform="translate(95.88156127929688,34.5)" y="0" x="0" id="text-entity-user-bf055eb3-69b9-44b4-88db-4a4546aaf25b-attr-1-key" class="er entityLabel">PK</text><rect height="21" width="36.947052001953125" y="45" x="0" class="er attributeBoxEven"/><text style="dominant-baseline: middle; font-size: 10.2px;" transform="translate(5,55.5)" y="0" x="0" id="text-entity-user-bf055eb3-69b9-44b4-88db-4a4546aaf25b-attr-2-type" class="er entityLabel">String</text><rect height="21" width="53.93450927734375" y="45" x="36.947052001953125" class="er attributeBoxEven"/><text style="dominant-baseline: middle; font-size: 10.2px;" transform="translate(41.947052001953125,55.5)" y="0" x="0" id="text-entity-user-bf055eb3-69b9-44b4-88db-4a4546aaf25b-attr-2-name" class="er entityLabel">name</text><rect height="21" width="23.79498291015625" y="45" x="90.88156127929688" class="er attributeBoxEven"/><text style="dominant-baseline: middle; font-size: 10.2px;" transform="translate(95.88156127929688,55.5)" y="0" x="0" id="text-entity-user-bf055eb3-69b9-44b4-88db-4a4546aaf25b-attr-2-key" class="er entityLabel"/><rect height="21" width="36.947052001953125" y="66" x="0" class="er attributeBoxOdd"/><text style="dominant-baseline: middle; font-size: 10.2px;" transform="translate(5,76.5)" y="0" x="0" id="text-entity-user-bf055eb3-69b9-44b4-88db-4a4546aaf25b-attr-3-type" class="er entityLabel">String</text><rect height="21" width="53.93450927734375" y="66" x="36.947052001953125" class="er attributeBoxOdd"/><text style="dominant-baseline: middle; font-size: 10.2px;" transform="translate(41.947052001953125,76.5)" y="0" x="0" id="text-entity-user-bf055eb3-69b9-44b4-88db-4a4546aaf25b-attr-3-name" class="er entityLabel">email</text><rect height="21" width="23.79498291015625" y="66" x="90.88156127929688" class="er attributeBoxOdd"/><text style="dominant-baseline: middle; font-size: 10.2px;" transform="translate(95.88156127929688,76.5)" y="0" x="0" id="text-entity-user-bf055eb3-69b9-44b4-88db-4a4546aaf25b-attr-3-key" class="er entityLabel"/><rect height="21" width="36.947052001953125" y="87" x="0" class="er attributeBoxEven"/><text style="dominant-baseline: middle; font-size: 10.2px;" transform="translate(5,97.5)" y="0" x="0" id="text-entity-user-bf055eb3-69b9-44b4-88db-4a4546aaf25b-attr-4-type" class="er entityLabel">String</text><rect height="21" width="53.93450927734375" y="87" x="36.947052001953125" class="er attributeBoxEven"/><text style="dominant-baseline: middle; font-size: 10.2px;" transform="translate(41.947052001953125,97.5)" y="0" x="0" id="text-entity-user-bf055eb3-69b9-44b4-88db-4a4546aaf25b-attr-4-name" class="er entityLabel">password</text><rect height="21" width="23.79498291015625" y="87" x="90.88156127929688" class="er attributeBoxEven"/><text style="dominant-baseline: middle; font-size: 10.2px;" transform="translate(95.88156127929688,97.5)" y="0" x="0" id="text-entity-user-bf055eb3-69b9-44b4-88db-4a4546aaf25b-attr-4-key" class="er entityLabel"/></g><g transform="translate(20,41 )" id="entity-useraddress-791de3c2-2123-4a6b-b1a2-9c04a225096b"><rect height="87" width="122.61563110351562" y="0" x="0" class="er entityBox"/><text style="dominant-baseline: middle; text-anchor: middle; font-size: 12px;" transform="translate(61.30781555175781,12)" y="0" x="0" id="text-entity-useraddress-791de3c2-2123-4a6b-b1a2-9c04a225096b" class="er entityLabel">user_address</text><rect height="21" width="36.947052001953125" y="24" x="0" class="er attributeBoxOdd"/><text style="dominant-baseline: middle; font-size: 10.2px;" transform="translate(5,34.5)" y="0" x="0" id="text-entity-useraddress-791de3c2-2123-4a6b-b1a2-9c04a225096b-attr-1-type" class="er entityLabel">String</text><rect height="21" width="61.87359619140625" y="24" x="36.947052001953125" class="er attributeBoxOdd"/><text style="dominant-baseline: middle; font-size: 10.2px;" transform="translate(41.947052001953125,34.5)" y="0" x="0" id="text-entity-useraddress-791de3c2-2123-4a6b-b1a2-9c04a225096b-attr-1-name" class="er entityLabel">id</text><rect height="21" width="23.79498291015625" y="24" x="98.82064819335938" class="er attributeBoxOdd"/><text style="dominant-baseline: middle; font-size: 10.2px;" transform="translate(103.82064819335938,34.5)" y="0" x="0" id="text-entity-useraddress-791de3c2-2123-4a6b-b1a2-9c04a225096b-attr-1-key" class="er entityLabel">PK</text><rect height="21" width="36.947052001953125" y="45" x="0" class="er attributeBoxEven"/><text style="dominant-baseline: middle; font-size: 10.2px;" transform="translate(5,55.5)" y="0" x="0" id="text-entity-useraddress-791de3c2-2123-4a6b-b1a2-9c04a225096b-attr-2-type" class="er entityLabel">String</text><rect height="21" width="61.87359619140625" y="45" x="36.947052001953125" class="er attributeBoxEven"/><text style="dominant-baseline: middle; font-size: 10.2px;" transform="translate(41.947052001953125,55.5)" y="0" x="0" id="text-entity-useraddress-791de3c2-2123-4a6b-b1a2-9c04a225096b-attr-2-name" class="er entityLabel">address</text><rect height="21" width="23.79498291015625" y="45" x="98.82064819335938" class="er attributeBoxEven"/><text style="dominant-baseline: middle; font-size: 10.2px;" transform="translate(103.82064819335938,55.5)" y="0" x="0" id="text-entity-useraddress-791de3c2-2123-4a6b-b1a2-9c04a225096b-attr-2-key" class="er entityLabel"/><rect height="21" width="36.947052001953125" y="66" x="0" class="er attributeBoxOdd"/><text style="dominant-baseline: middle; font-size: 10.2px;" transform="translate(5,76.5)" y="0" x="0" id="text-entity-useraddress-791de3c2-2123-4a6b-b1a2-9c04a225096b-attr-3-type" class="er entityLabel">String</text><rect height="21" width="61.87359619140625" y="66" x="36.947052001953125" class="er attributeBoxOdd"/><text style="dominant-baseline: middle; font-size: 10.2px;" transform="translate(41.947052001953125,76.5)" y="0" x="0" id="text-entity-useraddress-791de3c2-2123-4a6b-b1a2-9c04a225096b-attr-3-name" class="er entityLabel">postalCode</text><rect height="21" width="23.79498291015625" y="66" x="98.82064819335938" class="er attributeBoxOdd"/><text style="dominant-baseline: middle; font-size: 10.2px;" transform="translate(103.82064819335938,76.5)" y="0" x="0" id="text-entity-useraddress-791de3c2-2123-4a6b-b1a2-9c04a225096b-attr-3-key" class="er entityLabel"/></g><g transform="translate(290.77613067626953,20 )" id="entity-vehicle-893c301f-e3ee-466b-a10f-c493401cefac"><rect height="129" width="131.10189819335938" y="0" x="0" class="er entityBox"/><text style="dominant-baseline: middle; text-anchor: middle; font-size: 12px;" transform="translate(65.55094909667969,12)" y="0" x="0" id="text-entity-vehicle-893c301f-e3ee-466b-a10f-c493401cefac" class="er entityLabel">vehicle</text><rect height="21" width="36.947052001953125" y="24" x="0" class="er attributeBoxOdd"/><text style="dominant-baseline: middle; font-size: 10.2px;" transform="translate(5,34.5)" y="0" x="0" id="text-entity-vehicle-893c301f-e3ee-466b-a10f-c493401cefac-attr-1-type" class="er entityLabel">String</text><rect height="21" width="70.35986328125" y="24" x="36.947052001953125" class="er attributeBoxOdd"/><text style="dominant-baseline: middle; font-size: 10.2px;" transform="translate(41.947052001953125,34.5)" y="0" x="0" id="text-entity-vehicle-893c301f-e3ee-466b-a10f-c493401cefac-attr-1-name" class="er entityLabel">id</text><rect height="21" width="23.79498291015625" y="24" x="107.30691528320312" class="er attributeBoxOdd"/><text style="dominant-baseline: middle; font-size: 10.2px;" transform="translate(112.30691528320312,34.5)" y="0" x="0" id="text-entity-vehicle-893c301f-e3ee-466b-a10f-c493401cefac-attr-1-key" class="er entityLabel">PK</text><rect height="21" width="36.947052001953125" y="45" x="0" class="er attributeBoxEven"/><text style="dominant-baseline: middle; font-size: 10.2px;" transform="translate(5,55.5)" y="0" x="0" id="text-entity-vehicle-893c301f-e3ee-466b-a10f-c493401cefac-attr-2-type" class="er entityLabel">String</text><rect height="21" width="70.35986328125" y="45" x="36.947052001953125" class="er attributeBoxEven"/><text style="dominant-baseline: middle; font-size: 10.2px;" transform="translate(41.947052001953125,55.5)" y="0" x="0" id="text-entity-vehicle-893c301f-e3ee-466b-a10f-c493401cefac-attr-2-name" class="er entityLabel">type</text><rect height="21" width="23.79498291015625" y="45" x="107.30691528320312" class="er attributeBoxEven"/><text style="dominant-baseline: middle; font-size: 10.2px;" transform="translate(112.30691528320312,55.5)" y="0" x="0" id="text-entity-vehicle-893c301f-e3ee-466b-a10f-c493401cefac-attr-2-key" class="er entityLabel"/><rect height="21" width="36.947052001953125" y="66" x="0" class="er attributeBoxOdd"/><text style="dominant-baseline: middle; font-size: 10.2px;" transform="translate(5,76.5)" y="0" x="0" id="text-entity-vehicle-893c301f-e3ee-466b-a10f-c493401cefac-attr-3-type" class="er entityLabel">String</text><rect height="21" width="70.35986328125" y="66" x="36.947052001953125" class="er attributeBoxOdd"/><text style="dominant-baseline: middle; font-size: 10.2px;" transform="translate(41.947052001953125,76.5)" y="0" x="0" id="text-entity-vehicle-893c301f-e3ee-466b-a10f-c493401cefac-attr-3-name" class="er entityLabel">brand</text><rect height="21" width="23.79498291015625" y="66" x="107.30691528320312" class="er attributeBoxOdd"/><text style="dominant-baseline: middle; font-size: 10.2px;" transform="translate(112.30691528320312,76.5)" y="0" x="0" id="text-entity-vehicle-893c301f-e3ee-466b-a10f-c493401cefac-attr-3-key" class="er entityLabel"/><rect height="21" width="36.947052001953125" y="87" x="0" class="er attributeBoxEven"/><text style="dominant-baseline: middle; font-size: 10.2px;" transform="translate(5,97.5)" y="0" x="0" id="text-entity-vehicle-893c301f-e3ee-466b-a10f-c493401cefac-attr-4-type" class="er entityLabel">String</text><rect height="21" width="70.35986328125" y="87" x="36.947052001953125" class="er attributeBoxEven"/><text style="dominant-baseline: middle; font-size: 10.2px;" transform="translate(41.947052001953125,97.5)" y="0" x="0" id="text-entity-vehicle-893c301f-e3ee-466b-a10f-c493401cefac-attr-4-name" class="er entityLabel">name</text><rect height="21" width="23.79498291015625" y="87" x="107.30691528320312" class="er attributeBoxEven"/><text style="dominant-baseline: middle; font-size: 10.2px;" transform="translate(112.30691528320312,97.5)" y="0" x="0" id="text-entity-vehicle-893c301f-e3ee-466b-a10f-c493401cefac-attr-4-key" class="er entityLabel"/><rect height="21" width="36.947052001953125" y="108" x="0" class="er attributeBoxOdd"/><text style="dominant-baseline: middle; font-size: 10.2px;" transform="translate(5,118.5)" y="0" x="0" id="text-entity-vehicle-893c301f-e3ee-466b-a10f-c493401cefac-attr-5-type" class="er entityLabel">String</text><rect height="21" width="70.35986328125" y="108" x="36.947052001953125" class="er attributeBoxOdd"/><text style="dominant-baseline: middle; font-size: 10.2px;" transform="translate(41.947052001953125,118.5)" y="0" x="0" id="text-entity-vehicle-893c301f-e3ee-466b-a10f-c493401cefac-attr-5-name" class="er entityLabel">vehicleImage</text><rect height="21" width="23.79498291015625" y="108" x="107.30691528320312" class="er attributeBoxOdd"/><text style="dominant-baseline: middle; font-size: 10.2px;" transform="translate(112.30691528320312,118.5)" y="0" x="0" id="text-entity-vehicle-893c301f-e3ee-466b-a10f-c493401cefac-attr-5-key" class="er entityLabel"/></g><g transform="translate(340.48558807373047,259.5 )" id="entity-reserve-c793ea74-2290-4383-ac6a-e121a7c51b9e"><rect height="87" width="131.6829833984375" y="0" x="0" class="er entityBox"/><text style="dominant-baseline: middle; text-anchor: middle; font-size: 12px;" transform="translate(65.84149169921875,12)" y="0" x="0" id="text-entity-reserve-c793ea74-2290-4383-ac6a-e121a7c51b9e" class="er entityLabel">reserve</text><rect height="21" width="54.113128662109375" y="24" x="0" class="er attributeBoxOdd"/><text style="dominant-baseline: middle; font-size: 10.2px;" transform="translate(5,34.5)" y="0" x="0" id="text-entity-reserve-c793ea74-2290-4383-ac6a-e121a7c51b9e-attr-1-type" class="er entityLabel">String</text><rect height="21" width="53.774871826171875" y="24" x="54.113128662109375" class="er attributeBoxOdd"/><text style="dominant-baseline: middle; font-size: 10.2px;" transform="translate(59.113128662109375,34.5)" y="0" x="0" id="text-entity-reserve-c793ea74-2290-4383-ac6a-e121a7c51b9e-attr-1-name" class="er entityLabel">id</text><rect height="21" width="23.79498291015625" y="24" x="107.88800048828125" class="er attributeBoxOdd"/><text style="dominant-baseline: middle; font-size: 10.2px;" transform="translate(112.88800048828125,34.5)" y="0" x="0" id="text-entity-reserve-c793ea74-2290-4383-ac6a-e121a7c51b9e-attr-1-key" class="er entityLabel">PK</text><rect height="21" width="54.113128662109375" y="45" x="0" class="er attributeBoxEven"/><text style="dominant-baseline: middle; font-size: 10.2px;" transform="translate(5,55.5)" y="0" x="0" id="text-entity-reserve-c793ea74-2290-4383-ac6a-e121a7c51b9e-attr-2-type" class="er entityLabel">DateTime</text><rect height="21" width="53.774871826171875" y="45" x="54.113128662109375" class="er attributeBoxEven"/><text style="dominant-baseline: middle; font-size: 10.2px;" transform="translate(59.113128662109375,55.5)" y="0" x="0" id="text-entity-reserve-c793ea74-2290-4383-ac6a-e121a7c51b9e-attr-2-name" class="er entityLabel">createdAt</text><rect height="21" width="23.79498291015625" y="45" x="107.88800048828125" class="er attributeBoxEven"/><text style="dominant-baseline: middle; font-size: 10.2px;" transform="translate(112.88800048828125,55.5)" y="0" x="0" id="text-entity-reserve-c793ea74-2290-4383-ac6a-e121a7c51b9e-attr-2-key" class="er entityLabel"/><rect height="21" width="54.113128662109375" y="66" x="0" class="er attributeBoxOdd"/><text style="dominant-baseline: middle; font-size: 10.2px;" transform="translate(5,76.5)" y="0" x="0" id="text-entity-reserve-c793ea74-2290-4383-ac6a-e121a7c51b9e-attr-3-type" class="er entityLabel">DateTime</text><rect height="21" width="53.774871826171875" y="66" x="54.113128662109375" class="er attributeBoxOdd"/><text style="dominant-baseline: middle; font-size: 10.2px;" transform="translate(59.113128662109375,76.5)" y="0" x="0" id="text-entity-reserve-c793ea74-2290-4383-ac6a-e121a7c51b9e-attr-3-name" class="er entityLabel">expiresIn</text><rect height="21" width="23.79498291015625" y="66" x="107.88800048828125" class="er attributeBoxOdd"/><text style="dominant-baseline: middle; font-size: 10.2px;" transform="translate(112.88800048828125,76.5)" y="0" x="0" id="text-entity-reserve-c793ea74-2290-4383-ac6a-e121a7c51b9e-attr-3-key" class="er entityLabel"/></g><rect height="14" width="23.34765625" y="183.3704833984375" x="72.7162094116211" class="er relationshipLabelBox"/><text style="text-anchor: middle; dominant-baseline: middle; font-size: 12px;" y="190.3704833984375" x="84.3900375366211" id="rel1" class="er relationshipLabel">user</text><rect height="14" width="23.34765625" y="193.69288635253906" x="230.33029174804688" class="er relationshipLabelBox"/><text style="text-anchor: middle; dominant-baseline: middle; font-size: 12px;" y="200.69288635253906" x="242.00411987304688" id="rel2" class="er relationshipLabel">user</text><rect height="14" width="40.33984375" y="195.70767211914062" x="382.89013671875" class="er relationshipLabelBox"/><text style="text-anchor: middle; dominant-baseline: middle; font-size: 12px;" y="202.70767211914062" x="403.06005859375" id="rel3" class="er relationshipLabel">reserve</text></svg>