<svg aria-roledescription="er" viewBox="0 0 386.3595275878906 377" style="max-width: 386.36px; background-color: white;" xmlns:xlink="http://www.w3.org/1999/xlink" xmlns="http://www.w3.org/2000/svg" width="100%" id="mermaid-0"><style>#mermaid-0{font-family:"trebuchet ms",verdana,arial,sans-serif;font-size:16px;fill:#000000;}#mermaid-0 .error-icon{fill:#552222;}#mermaid-0 .error-text{fill:#552222;stroke:#552222;}#mermaid-0 .edge-thickness-normal{stroke-width:2px;}#mermaid-0 .edge-thickness-thick{stroke-width:3.5px;}#mermaid-0 .edge-pattern-solid{stroke-dasharray:0;}#mermaid-0 .edge-pattern-dashed{stroke-dasharray:3;}#mermaid-0 .edge-pattern-dotted{stroke-dasharray:2;}#mermaid-0 .marker{fill:#000000;stroke:#000000;}#mermaid-0 .marker.cross{stroke:#000000;}#mermaid-0 svg{font-family:"trebuchet ms",verdana,arial,sans-serif;font-size:16px;}#mermaid-0 .entityBox{fill:#cde498;stroke:#13540c;}#mermaid-0 .attributeBoxOdd{fill:#ffffff;stroke:#13540c;}#mermaid-0 .attributeBoxEven{fill:#f2f2f2;stroke:#13540c;}#mermaid-0 .relationshipLabelBox{fill:hsl(78.1578947368, 58.4615384615%, 84.5098039216%);opacity:0.7;background-color:hsl(78.1578947368, 58.4615384615%, 84.5098039216%);}#mermaid-0 .relationshipLabelBox rect{opacity:0.5;}#mermaid-0 .relationshipLine{stroke:#000000;}#mermaid-0 .entityTitleText{text-anchor:middle;font-size:18px;fill:#000000;}#mermaid-0 :root{--mermaid-font-family:"trebuchet ms",verdana,arial,sans-serif;}</style><g/><defs><marker orient="auto" markerHeight="18" markerWidth="18" refY="9" refX="0" id="ONLY_ONE_START"><path d="M9,0 L9,18 M15,0 L15,18" fill="none" stroke="gray"/></marker></defs><defs><marker orient="auto" markerHeight="18" markerWidth="18" refY="9" refX="18" id="ONLY_ONE_END"><path d="M3,0 L3,18 M9,0 L9,18" fill="none" stroke="gray"/></marker></defs><defs><marker orient="auto" markerHeight="18" markerWidth="30" refY="9" refX="0" id="ZERO_OR_ONE_START"><circle r="6" cy="9" cx="21" fill="white" stroke="gray"/><path d="M9,0 L9,18" fill="none" stroke="gray"/></marker></defs><defs><marker orient="auto" markerHeight="18" markerWidth="30" refY="9" refX="30" id="ZERO_OR_ONE_END"><circle r="6" cy="9" cx="9" fill="white" stroke="gray"/><path d="M21,0 L21,18" fill="none" stroke="gray"/></marker></defs><defs><marker orient="auto" markerHeight="36" markerWidth="45" refY="18" refX="18" id="ONE_OR_MORE_START"><path d="M0,18 Q 18,0 36,18 Q 18,36 0,18 M42,9 L42,27" fill="none" stroke="gray"/></marker></defs><defs><marker orient="auto" markerHeight="36" markerWidth="45" refY="18" refX="27" id="ONE_OR_MORE_END"><path d="M3,9 L3,27 M9,18 Q27,0 45,18 Q27,36 9,18" fill="none" stroke="gray"/></marker></defs><defs><marker orient="auto" markerHeight="36" markerWidth="57" refY="18" refX="18" id="ZERO_OR_MORE_START"><circle r="6" cy="18" cx="48" fill="white" stroke="gray"/><path d="M0,18 Q18,0 36,18 Q18,36 0,18" fill="none" stroke="gray"/></marker></defs><defs><marker orient="auto" markerHeight="36" markerWidth="57" refY="18" refX="39" id="ZERO_OR_MORE_END"><circle r="6" cy="18" cx="9" fill="white" stroke="gray"/><path d="M21,18 Q39,0 57,18 Q39,36 21,18" fill="none" stroke="gray"/></marker></defs><path style="stroke: gray; fill: none;" marker-start="url(#ZERO_OR_MORE_START)" marker-end="url(#ONLY_ONE_END)" d="M126.06747816327358,149L117.94594381851574,157.33333333333334C109.8244094737579,165.66666666666666,93.58134078424223,182.33333333333334,85.4598064394844,199C77.33827209472656,215.66666666666666,77.33827209472656,232.33333333333334,77.33827209472656,240.66666666666666L77.33827209472656,249" class="er relationshipLine"/><path style="stroke: gray; fill: none;" marker-start="url(#ZERO_OR_MORE_START)" marker-end="url(#ZERO_OR_ONE_END)" d="M251.78882982012487,149L259.9103641648827,157.33333333333334C268.03189850964054,165.66666666666666,284.2749671991562,182.33333333333334,292.39650154391404,200.75C300.5180358886719,219.16666666666666,300.5180358886719,239.33333333333334,300.5180358886719,249.41666666666666L300.5180358886719,259.5" class="er relationshipLine"/><g transform="translate(20,249 )" id="entity-user-5cbf9734-9898-4fc6-9f49-5d91e8e002b0"><rect height="108" width="114.67654418945312" y="0" x="0" class="er entityBox"/><text style="dominant-baseline: middle; text-anchor: middle; font-size: 12px;" transform="translate(57.33827209472656,12)" y="0" x="0" id="text-entity-user-5cbf9734-9898-4fc6-9f49-5d91e8e002b0" class="er entityLabel">user</text><rect height="21" width="36.947052001953125" y="24" x="0" class="er attributeBoxOdd"/><text style="dominant-baseline: middle; font-size: 10.2px;" transform="translate(5,34.5)" y="0" x="0" id="text-entity-user-5cbf9734-9898-4fc6-9f49-5d91e8e002b0-attr-1-type" class="er entityLabel">String</text><rect height="21" width="53.93450927734375" y="24" x="36.947052001953125" class="er attributeBoxOdd"/><text style="dominant-baseline: middle; font-size: 10.2px;" transform="translate(41.947052001953125,34.5)" y="0" x="0" id="text-entity-user-5cbf9734-9898-4fc6-9f49-5d91e8e002b0-attr-1-name" class="er entityLabel">id</text><rect height="21" width="23.79498291015625" y="24" x="90.88156127929688" class="er attributeBoxOdd"/><text style="dominant-baseline: middle; font-size: 10.2px;" transform="translate(95.88156127929688,34.5)" y="0" x="0" id="text-entity-user-5cbf9734-9898-4fc6-9f49-5d91e8e002b0-attr-1-key" class="er entityLabel">PK</text><rect height="21" width="36.947052001953125" y="45" x="0" class="er attributeBoxEven"/><text style="dominant-baseline: middle; font-size: 10.2px;" transform="translate(5,55.5)" y="0" x="0" id="text-entity-user-5cbf9734-9898-4fc6-9f49-5d91e8e002b0-attr-2-type" class="er entityLabel">String</text><rect height="21" width="53.93450927734375" y="45" x="36.947052001953125" class="er attributeBoxEven"/><text style="dominant-baseline: middle; font-size: 10.2px;" transform="translate(41.947052001953125,55.5)" y="0" x="0" id="text-entity-user-5cbf9734-9898-4fc6-9f49-5d91e8e002b0-attr-2-name" class="er entityLabel">name</text><rect height="21" width="23.79498291015625" y="45" x="90.88156127929688" class="er attributeBoxEven"/><text style="dominant-baseline: middle; font-size: 10.2px;" transform="translate(95.88156127929688,55.5)" y="0" x="0" id="text-entity-user-5cbf9734-9898-4fc6-9f49-5d91e8e002b0-attr-2-key" class="er entityLabel"/><rect height="21" width="36.947052001953125" y="66" x="0" class="er attributeBoxOdd"/><text style="dominant-baseline: middle; font-size: 10.2px;" transform="translate(5,76.5)" y="0" x="0" id="text-entity-user-5cbf9734-9898-4fc6-9f49-5d91e8e002b0-attr-3-type" class="er entityLabel">String</text><rect height="21" width="53.93450927734375" y="66" x="36.947052001953125" class="er attributeBoxOdd"/><text style="dominant-baseline: middle; font-size: 10.2px;" transform="translate(41.947052001953125,76.5)" y="0" x="0" id="text-entity-user-5cbf9734-9898-4fc6-9f49-5d91e8e002b0-attr-3-name" class="er entityLabel">email</text><rect height="21" width="23.79498291015625" y="66" x="90.88156127929688" class="er attributeBoxOdd"/><text style="dominant-baseline: middle; font-size: 10.2px;" transform="translate(95.88156127929688,76.5)" y="0" x="0" id="text-entity-user-5cbf9734-9898-4fc6-9f49-5d91e8e002b0-attr-3-key" class="er entityLabel"/><rect height="21" width="36.947052001953125" y="87" x="0" class="er attributeBoxEven"/><text style="dominant-baseline: middle; font-size: 10.2px;" transform="translate(5,97.5)" y="0" x="0" id="text-entity-user-5cbf9734-9898-4fc6-9f49-5d91e8e002b0-attr-4-type" class="er entityLabel">String</text><rect height="21" width="53.93450927734375" y="87" x="36.947052001953125" class="er attributeBoxEven"/><text style="dominant-baseline: middle; font-size: 10.2px;" transform="translate(41.947052001953125,97.5)" y="0" x="0" id="text-entity-user-5cbf9734-9898-4fc6-9f49-5d91e8e002b0-attr-4-name" class="er entityLabel">password</text><rect height="21" width="23.79498291015625" y="87" x="90.88156127929688" class="er attributeBoxEven"/><text style="dominant-baseline: middle; font-size: 10.2px;" transform="translate(95.88156127929688,97.5)" y="0" x="0" id="text-entity-user-5cbf9734-9898-4fc6-9f49-5d91e8e002b0-attr-4-key" class="er entityLabel"/></g><g transform="translate(123.37720489501953,20 )" id="entity-vehicle-d3e70649-4357-401d-9a4c-3a31a5522750"><rect height="129" width="131.10189819335938" y="0" x="0" class="er entityBox"/><text style="dominant-baseline: middle; text-anchor: middle; font-size: 12px;" transform="translate(65.55094909667969,12)" y="0" x="0" id="text-entity-vehicle-d3e70649-4357-401d-9a4c-3a31a5522750" class="er entityLabel">vehicle</text><rect height="21" width="36.947052001953125" y="24" x="0" class="er attributeBoxOdd"/><text style="dominant-baseline: middle; font-size: 10.2px;" transform="translate(5,34.5)" y="0" x="0" id="text-entity-vehicle-d3e70649-4357-401d-9a4c-3a31a5522750-attr-1-type" class="er entityLabel">String</text><rect height="21" width="70.35986328125" y="24" x="36.947052001953125" class="er attributeBoxOdd"/><text style="dominant-baseline: middle; font-size: 10.2px;" transform="translate(41.947052001953125,34.5)" y="0" x="0" id="text-entity-vehicle-d3e70649-4357-401d-9a4c-3a31a5522750-attr-1-name" class="er entityLabel">id</text><rect height="21" width="23.79498291015625" y="24" x="107.30691528320312" class="er attributeBoxOdd"/><text style="dominant-baseline: middle; font-size: 10.2px;" transform="translate(112.30691528320312,34.5)" y="0" x="0" id="text-entity-vehicle-d3e70649-4357-401d-9a4c-3a31a5522750-attr-1-key" class="er entityLabel">PK</text><rect height="21" width="36.947052001953125" y="45" x="0" class="er attributeBoxEven"/><text style="dominant-baseline: middle; font-size: 10.2px;" transform="translate(5,55.5)" y="0" x="0" id="text-entity-vehicle-d3e70649-4357-401d-9a4c-3a31a5522750-attr-2-type" class="er entityLabel">String</text><rect height="21" width="70.35986328125" y="45" x="36.947052001953125" class="er attributeBoxEven"/><text style="dominant-baseline: middle; font-size: 10.2px;" transform="translate(41.947052001953125,55.5)" y="0" x="0" id="text-entity-vehicle-d3e70649-4357-401d-9a4c-3a31a5522750-attr-2-name" class="er entityLabel">type</text><rect height="21" width="23.79498291015625" y="45" x="107.30691528320312" class="er attributeBoxEven"/><text style="dominant-baseline: middle; font-size: 10.2px;" transform="translate(112.30691528320312,55.5)" y="0" x="0" id="text-entity-vehicle-d3e70649-4357-401d-9a4c-3a31a5522750-attr-2-key" class="er entityLabel"/><rect height="21" width="36.947052001953125" y="66" x="0" class="er attributeBoxOdd"/><text style="dominant-baseline: middle; font-size: 10.2px;" transform="translate(5,76.5)" y="0" x="0" id="text-entity-vehicle-d3e70649-4357-401d-9a4c-3a31a5522750-attr-3-type" class="er entityLabel">String</text><rect height="21" width="70.35986328125" y="66" x="36.947052001953125" class="er attributeBoxOdd"/><text style="dominant-baseline: middle; font-size: 10.2px;" transform="translate(41.947052001953125,76.5)" y="0" x="0" id="text-entity-vehicle-d3e70649-4357-401d-9a4c-3a31a5522750-attr-3-name" class="er entityLabel">brand</text><rect height="21" width="23.79498291015625" y="66" x="107.30691528320312" class="er attributeBoxOdd"/><text style="dominant-baseline: middle; font-size: 10.2px;" transform="translate(112.30691528320312,76.5)" y="0" x="0" id="text-entity-vehicle-d3e70649-4357-401d-9a4c-3a31a5522750-attr-3-key" class="er entityLabel"/><rect height="21" width="36.947052001953125" y="87" x="0" class="er attributeBoxEven"/><text style="dominant-baseline: middle; font-size: 10.2px;" transform="translate(5,97.5)" y="0" x="0" id="text-entity-vehicle-d3e70649-4357-401d-9a4c-3a31a5522750-attr-4-type" class="er entityLabel">String</text><rect height="21" width="70.35986328125" y="87" x="36.947052001953125" class="er attributeBoxEven"/><text style="dominant-baseline: middle; font-size: 10.2px;" transform="translate(41.947052001953125,97.5)" y="0" x="0" id="text-entity-vehicle-d3e70649-4357-401d-9a4c-3a31a5522750-attr-4-name" class="er entityLabel">name</text><rect height="21" width="23.79498291015625" y="87" x="107.30691528320312" class="er attributeBoxEven"/><text style="dominant-baseline: middle; font-size: 10.2px;" transform="translate(112.30691528320312,97.5)" y="0" x="0" id="text-entity-vehicle-d3e70649-4357-401d-9a4c-3a31a5522750-attr-4-key" class="er entityLabel"/><rect height="21" width="36.947052001953125" y="108" x="0" class="er attributeBoxOdd"/><text style="dominant-baseline: middle; font-size: 10.2px;" transform="translate(5,118.5)" y="0" x="0" id="text-entity-vehicle-d3e70649-4357-401d-9a4c-3a31a5522750-attr-5-type" class="er entityLabel">String</text><rect height="21" width="70.35986328125" y="108" x="36.947052001953125" class="er attributeBoxOdd"/><text style="dominant-baseline: middle; font-size: 10.2px;" transform="translate(41.947052001953125,118.5)" y="0" x="0" id="text-entity-vehicle-d3e70649-4357-401d-9a4c-3a31a5522750-attr-5-name" class="er entityLabel">vehicleImage</text><rect height="21" width="23.79498291015625" y="108" x="107.30691528320312" class="er attributeBoxOdd"/><text style="dominant-baseline: middle; font-size: 10.2px;" transform="translate(112.30691528320312,118.5)" y="0" x="0" id="text-entity-vehicle-d3e70649-4357-401d-9a4c-3a31a5522750-attr-5-key" class="er entityLabel"/></g><g transform="translate(234.67654418945312,259.5 )" id="entity-reserve-6f1c0d1a-d355-4280-bfa7-3d98bbb27291"><rect height="87" width="131.6829833984375" y="0" x="0" class="er entityBox"/><text style="dominant-baseline: middle; text-anchor: middle; font-size: 12px;" transform="translate(65.84149169921875,12)" y="0" x="0" id="text-entity-reserve-6f1c0d1a-d355-4280-bfa7-3d98bbb27291" class="er entityLabel">reserve</text><rect height="21" width="54.113128662109375" y="24" x="0" class="er attributeBoxOdd"/><text style="dominant-baseline: middle; font-size: 10.2px;" transform="translate(5,34.5)" y="0" x="0" id="text-entity-reserve-6f1c0d1a-d355-4280-bfa7-3d98bbb27291-attr-1-type" class="er entityLabel">String</text><rect height="21" width="53.774871826171875" y="24" x="54.113128662109375" class="er attributeBoxOdd"/><text style="dominant-baseline: middle; font-size: 10.2px;" transform="translate(59.113128662109375,34.5)" y="0" x="0" id="text-entity-reserve-6f1c0d1a-d355-4280-bfa7-3d98bbb27291-attr-1-name" class="er entityLabel">id</text><rect height="21" width="23.79498291015625" y="24" x="107.88800048828125" class="er attributeBoxOdd"/><text style="dominant-baseline: middle; font-size: 10.2px;" transform="translate(112.88800048828125,34.5)" y="0" x="0" id="text-entity-reserve-6f1c0d1a-d355-4280-bfa7-3d98bbb27291-attr-1-key" class="er entityLabel">PK</text><rect height="21" width="54.113128662109375" y="45" x="0" class="er attributeBoxEven"/><text style="dominant-baseline: middle; font-size: 10.2px;" transform="translate(5,55.5)" y="0" x="0" id="text-entity-reserve-6f1c0d1a-d355-4280-bfa7-3d98bbb27291-attr-2-type" class="er entityLabel">DateTime</text><rect height="21" width="53.774871826171875" y="45" x="54.113128662109375" class="er attributeBoxEven"/><text style="dominant-baseline: middle; font-size: 10.2px;" transform="translate(59.113128662109375,55.5)" y="0" x="0" id="text-entity-reserve-6f1c0d1a-d355-4280-bfa7-3d98bbb27291-attr-2-name" class="er entityLabel">createdAt</text><rect height="21" width="23.79498291015625" y="45" x="107.88800048828125" class="er attributeBoxEven"/><text style="dominant-baseline: middle; font-size: 10.2px;" transform="translate(112.88800048828125,55.5)" y="0" x="0" id="text-entity-reserve-6f1c0d1a-d355-4280-bfa7-3d98bbb27291-attr-2-key" class="er entityLabel"/><rect height="21" width="54.113128662109375" y="66" x="0" class="er attributeBoxOdd"/><text style="dominant-baseline: middle; font-size: 10.2px;" transform="translate(5,76.5)" y="0" x="0" id="text-entity-reserve-6f1c0d1a-d355-4280-bfa7-3d98bbb27291-attr-3-type" class="er entityLabel">DateTime</text><rect height="21" width="53.774871826171875" y="66" x="54.113128662109375" class="er attributeBoxOdd"/><text style="dominant-baseline: middle; font-size: 10.2px;" transform="translate(59.113128662109375,76.5)" y="0" x="0" id="text-entity-reserve-6f1c0d1a-d355-4280-bfa7-3d98bbb27291-attr-3-name" class="er entityLabel">expiresIn</text><rect height="21" width="23.79498291015625" y="66" x="107.88800048828125" class="er attributeBoxOdd"/><text style="dominant-baseline: middle; font-size: 10.2px;" transform="translate(112.88800048828125,76.5)" y="0" x="0" id="text-entity-reserve-6f1c0d1a-d355-4280-bfa7-3d98bbb27291-attr-3-key" class="er entityLabel"/></g><rect height="14" width="23.34765625" y="186.06494140625" x="77.0027084350586" class="er relationshipLabelBox"/><text style="text-anchor: middle; dominant-baseline: middle; font-size: 12px;" y="193.06494140625" x="88.6765365600586" id="rel1" class="er relationshipLabel">user</text><rect height="14" width="40.33984375" y="190.87130737304688" x="270.88555908203125" class="er relationshipLabelBox"/><text style="text-anchor: middle; dominant-baseline: middle; font-size: 12px;" y="197.87130737304688" x="291.05548095703125" id="rel2" class="er relationshipLabel">reserve</text></svg>